<svg xmlns="http://www.w3.org/2000/svg" width="84.003" height="170" viewBox="0 0 84.003 170">
  <g id="Group_239" data-name="Group 239" transform="translate(-5322.273 -846.978)">
    <path id="Path_372" data-name="Path 372" d="M5381.366,874.843c.03-.389.05-.781.05-1.178a15.214,15.214,0,1,0-6.231,12.274,91.4,91.4,0,0,0,4.547-8.872A6.721,6.721,0,0,1,5381.366,874.843Z" fill="#d7e0e5"/>
    <path id="Path_373" data-name="Path 373" d="M5391.194,875.666a6.767,6.767,0,0,1,.859,6.968c-4.529,9.994-9.21,17.21-14.316,22.067-4.741,4.547-10.3,7.051-15.651,7.051h-.1a19.618,19.618,0,0,1-8.6-2.024,25.2,25.2,0,0,1-5.927-4.034,35.007,35.007,0,0,1-4.189-4.576v107.5a8.357,8.357,0,0,0,16.715,0V947.6h3.133v61.018a8.357,8.357,0,0,0,16.715,0V916.914a7.071,7.071,0,0,0,1.441.162h.053a7.174,7.174,0,0,0,4.065-1.34,11.449,11.449,0,0,0,3.6-4.661,49.961,49.961,0,0,0,3.209-10.8c.984-4.766,1.93-10.9,2.843-18.805A5.4,5.4,0,0,0,5391.194,875.666Z" fill="#d7e0e5"/>
    <path id="Path_374" data-name="Path 374" d="M5403.391,853.944a6.329,6.329,0,0,1-9.079-6.01c-3.412-2.231-16.1-2.289-6.514,19.7C5411.788,867.872,5406.776,856.212,5403.391,853.944Z" fill="#d7e0e5"/>
    <path id="Path_375" data-name="Path 375" d="M5333.513,858.38a6.328,6.328,0,0,1-8.694,6.554c-3.242,2.47-7.53,14.416,16.4,12.715C5349.446,855.111,5336.782,855.945,5333.513,858.38Z" fill="#d7e0e5"/>
    <path id="Path_376" data-name="Path 376" d="M5343.637,899.229h0a28.266,28.266,0,0,0,4.729,5.459,24.132,24.132,0,0,0,5.613,3.823,18.386,18.386,0,0,0,8.009,1.891h.1c4.821,0,10.02-2.174,14.72-6.679,4.78-4.549,9.376-11.408,14.014-21.646a5.408,5.408,0,1,0-9.857-4.452c-4.248,9.427-8.3,15.138-11.6,18.246-3.346,3.117-5.618,3.684-7.38,3.714a7.555,7.555,0,0,1-3.309-.814,13.618,13.618,0,0,1-3.181-2.22l2.115-.006a10.338,10.338,0,0,0,1.647,1.006,6.286,6.286,0,0,0,2.729.682c1.341-.023,3.315-.425,6.459-3.352a30.5,30.5,0,0,0,3.457-3.957H5348.5c-.07,0-.138.008-.207.011a5.41,5.41,0,0,0-4.653,8.294Z" fill="#d7e0e5"/>
  </g>
</svg>
