<svg xmlns="http://www.w3.org/2000/svg" width="194" height="194.009" viewBox="0 0 194 194.009">
  <g id="Group_32" data-name="Group 32" transform="translate(-5298.173 -356.437)">
    <path id="Path_77" data-name="Path 77" d="M5343.739,448.816a160.793,160.793,0,0,0-10.071,18.464,2.428,2.428,0,0,0,.51,2.681l44.476,44.469a2.428,2.428,0,0,0,2.684.51,161.366,161.366,0,0,0,18.458-10.069,2.425,2.425,0,1,0-2.548-4.128,179.136,179.136,0,0,1-16.359,9.059l-42.081-42.074a178.332,178.332,0,0,1,9.062-16.361,2.428,2.428,0,0,0-4.131-2.551Z" fill="#ee4036"/>
    <path id="Path_78" data-name="Path 78" d="M5365.117,508.63a2.421,2.421,0,0,0-2.766-.495,15.543,15.543,0,0,1-13.986-.619,2.427,2.427,0,0,0-2.318,4.264,20.553,20.553,0,0,0,16.75,1.415l3.073,3.135c-13.3,14.8-35.83,13.335-44.312,12.154,1.99-4.575,1.561-9.924,1.11-15.522-.809-10.016-1.639-20.356,9.622-30.182l3.4,3.4a24.313,24.313,0,0,0,.97,15.279c.017.049,1.719,4.757-.288,8.154-1.163,1.968-3.463,3.226-6.841,3.74a2.427,2.427,0,0,0,.73,4.8c4.909-.748,8.38-2.8,10.314-6.108,3.167-5.412.738-12.011.59-12.389a20.112,20.112,0,0,1-.442-13.539,2.424,2.424,0,0,0-.616-2.381l-5.946-5.943a2.427,2.427,0,0,0-3.218-.192c-15.039,11.84-13.971,25.1-13.112,35.756.5,6.279.942,11.7-2.058,15.394a2.424,2.424,0,0,0,1.342,3.9,71.676,71.676,0,0,0,14.8,1.468c11.932,0,28.415-2.842,39.132-16.4a2.429,2.429,0,0,0-.17-3.2Z" fill="#ee4036"/>
    <path id="Path_79" data-name="Path 79" d="M5456.316,425.335a23.364,23.364,0,0,0-16.519-39.88h0a23.356,23.356,0,1,0,16.524,39.88Zm-35.035-16.515a18.517,18.517,0,0,1,18.511-18.509h0a18.508,18.508,0,1,1-18.516,18.509Z" fill="#ee4036"/>
    <path id="Path_80" data-name="Path 80" d="M5492.158,359.136a2.431,2.431,0,0,0-2.684-2.684l-7.861.891c-4.831-.726-50.368-6.036-98.882,42.479q-2.6,2.61-5.045,5.186l-29.539.007a2.436,2.436,0,0,0-1.857.862l-47.546,56.369a2.432,2.432,0,0,0,.138,3.281l6.72,6.725a2.432,2.432,0,0,0,2.92.393l27.35-15.59a2.427,2.427,0,0,0-2.4-4.217l-25.743,14.67-3.837-3.837,45.381-53.8,29.457-.007a2.426,2.426,0,0,0,1.764-.76q2.74-2.9,5.669-5.846c25.28-25.275,49.757-35.094,65.839-38.882,17.42-4.1,29.032-2.211,29.149-2.189a2.323,2.323,0,0,0,.681.022l5.162-.585-.585,5.162a2.422,2.422,0,0,0,.02.682c.019.116,1.912,11.728-2.189,29.15-3.786,16.083-13.6,40.56-38.88,65.837q-2.944,2.944-5.856,5.676a2.43,2.43,0,0,0-.759,1.767l0,29.452-53.8,45.384-3.776-3.777,16.053-25.287a2.426,2.426,0,1,0-4.1-2.6l-17.1,26.93a2.426,2.426,0,0,0,.333,3.016l6.724,6.725a2.43,2.43,0,0,0,3.281.141l56.37-47.549a2.419,2.419,0,0,0,.862-1.856l0-29.534c1.721-1.636,3.456-3.315,5.194-5.055,48.519-48.519,43.206-94.054,42.478-98.888Z" fill="#ee4036"/>
    <path id="Path_81" data-name="Path 81" d="M5382.58,461.659l-20.021,20.024a2.426,2.426,0,1,0,3.432,3.431l20.021-20.023a2.427,2.427,0,1,0-3.432-3.432Z" fill="#ee4036"/>
    <path id="Path_82" data-name="Path 82" d="M5372.57,451.651l-20.021,20.021a2.426,2.426,0,1,0,3.431,3.432L5376,455.082a2.426,2.426,0,0,0-3.431-3.431Z" fill="#ee4036"/>
    <path id="Path_83" data-name="Path 83" d="M5372.39,494.943a2.426,2.426,0,0,0,3.432,0l20.021-20.019a2.427,2.427,0,0,0-3.432-3.432l-20.021,20.019A2.424,2.424,0,0,0,5372.39,494.943Z" fill="#ee4036"/>
    <path id="Path_84" data-name="Path 84" d="M5371.958,417.875h-22.244a2.426,2.426,0,1,0,0,4.853h22.244a2.426,2.426,0,1,0,0-4.853Z" fill="#ee4036"/>
    <path id="Path_85" data-name="Path 85" d="M5425.884,476.657V498.9a2.427,2.427,0,1,0,4.854,0V476.657a2.427,2.427,0,1,0-4.854,0Z" fill="#ee4036"/>
  </g>
</svg>
