<svg xmlns="http://www.w3.org/2000/svg" width="110.49" height="173.104" viewBox="0 0 110.49 173.104">
  <g id="Group_233" data-name="Group 233" transform="translate(-4369.186 -842.896)">
    <path id="Path_359" data-name="Path 359" d="M4442.55,973.444a9.619,9.619,0,0,0,18.462-5.41l-11.8-40.273a9.57,9.57,0,0,0-4.521-5.669c-.593.387-1.205.763-1.85,1.12-6.3,3.461-14.727,5.593-26.511,6.709-.245.024-.483.033-.721.033a7.7,7.7,0,0,1-.709-15.358c7.17-.659,13.176-1.848,17.371-3.433.335-.125.645-.251.946-.377l2.921-14.341a28.69,28.69,0,0,1,2.973,4.619,15.007,15.007,0,0,1,.848,2.037,8.344,8.344,0,0,1,.479,2.591,5,5,0,0,1-.041.642h0a4.174,4.174,0,0,1-.867,2.05c-.831,1.119-2.759,2.732-6.714,4.217-3.928,1.486-9.753,2.788-17.774,3.527a6.157,6.157,0,0,0,.567,12.287q.285,0,.575-.027c11.685-1.106,19.9-3.222,25.912-6.521a22.737,22.737,0,0,0,7.259-6.065,16.564,16.564,0,0,0,3.249-7.855l0-.011a17.541,17.541,0,0,0,.144-2.245,19.639,19.639,0,0,0-.337-3.467,25.828,25.828,0,0,0-2.578-7.228,50.237,50.237,0,0,0-8.523-11.325c-1.667-1.707-3.118-3.017-4.03-3.808a5.92,5.92,0,0,0-3.416-2.062l-1.451-.3a18.783,18.783,0,0,1-12.355,4.67,19.017,19.017,0,0,1-3.783-.384,18.724,18.724,0,0,1-11.959-8.07,19.085,19.085,0,0,1-1.131-1.958c-.086.005-.174.006-.259.015a29.621,29.621,0,0,0-18.413,8,41.763,41.763,0,0,0-10.838,16.874c-2.786,7.612-4.489,17.311-4.491,29.762q0,2.949.133,6.109a6.157,6.157,0,0,0,6.147,5.9c.087,0,.174,0,.261-.005a6.158,6.158,0,0,0,5.893-6.41q-.125-2.913-.12-5.592c0-11.333,1.56-19.586,3.74-25.529,2.827-7.613,6.491-11.5,9.776-13.741-3.113,12.614-7.8,32.938-7.8,40.938a6.072,6.072,0,0,0,.093,1.063v77.344a9.514,9.514,0,0,0,19.029,0V945.48a9.614,9.614,0,0,0,11.187,3.5l16.119-5.933Z" fill="#d7e0e5"/>
    <rect id="Rectangle_52" data-name="Rectangle 52" width="56.431" height="31.423" transform="translate(4423.244 984.462)" fill="#d7e0e5"/>
    <circle id="Ellipse_21" data-name="Ellipse 21" cx="17.315" cy="17.315" r="17.315" transform="matrix(0.2, -0.98, 0.98, 0.2, 4399.619, 876.83)" fill="#d7e0e5"/>
  </g>
</svg>
