<svg xmlns="http://www.w3.org/2000/svg" width="94.868" height="170" viewBox="0 0 94.868 170">
  <g id="Group_235" data-name="Group 235" transform="translate(-4686.725 -848.155)">
    <path id="Path_360" data-name="Path 360" d="M4767.735,870.673a5.733,5.733,0,0,0-4.932,6.437,83.616,83.616,0,0,1,.827,10.679,21.8,21.8,0,0,1-.678,6.226,8.619,8.619,0,0,1-1.175-.64,30.574,30.574,0,0,1-5.042-4.223c-.725-.732-1.329-1.391-1.742-1.856-.207-.233-.364-.416-.466-.537-.052-.061-.089-.1-.111-.128l-.017-.023a5.727,5.727,0,0,0-5-2.061,5.508,5.508,0,0,0-.731-.054h-27.69a5.529,5.529,0,0,0-.732.054,5.726,5.726,0,0,0-5,2.061l-.05.059a45.033,45.033,0,0,1-4.535,4.6,21.365,21.365,0,0,1-3.3,2.409c-.241.135-.467.25-.667.34a21.227,21.227,0,0,1-.684-6.225,82.881,82.881,0,0,1,.828-10.679,5.734,5.734,0,0,0-11.369-1.506,94.131,94.131,0,0,0-.928,12.186c.032,5.132.581,8.957,2.291,12.28a10.9,10.9,0,0,0,3.8,4.206,9.844,9.844,0,0,0,5.2,1.492h.068a14.956,14.956,0,0,0,7.474-2.319c.72-.428,1.407-.884,2.068-1.356v107.2a8.862,8.862,0,0,0,17.723,0v-64.7h3.322v64.7a8.862,8.862,0,0,0,17.724,0V902.083c.661.473,1.342.936,2.068,1.364a14.939,14.939,0,0,0,7.474,2.319h.067a9.856,9.856,0,0,0,5.2-1.492,12.066,12.066,0,0,0,4.873-6.806,32.346,32.346,0,0,0,1.214-9.68,94.366,94.366,0,0,0-.928-12.184A5.732,5.732,0,0,0,4767.735,870.673Z" fill="#d7e0e5"/>
    <circle id="Ellipse_22" data-name="Ellipse 22" cx="16.127" cy="16.127" r="16.127" transform="translate(4718.694 848.155)" fill="#d7e0e5"/>
    <path id="Path_361" data-name="Path 361" d="M4693.441,868.819c.2-.13.307-.174.305-.178a.715.715,0,1,0-.609-1.295l0,0a5.149,5.149,0,0,0-2.892,4.38,6.023,6.023,0,0,0,.765,2.8.717.717,0,1,0,1.27-.665,4.589,4.589,0,0,1-.6-2.138,3.209,3.209,0,0,1,1.027-2.317A4.567,4.567,0,0,1,4693.441,868.819Z" fill="#d7e0e5"/>
    <path id="Path_362" data-name="Path 362" d="M4689.024,875.981a.716.716,0,0,0,.266-.977,7.441,7.441,0,0,1-1.131-3.718,5.451,5.451,0,0,1,1.551-3.745,7.257,7.257,0,0,1,1.091-.962c.3-.212.467-.3.466-.3a.716.716,0,0,0-.678-1.262h0a7.591,7.591,0,0,0-3.861,6.271,8.9,8.9,0,0,0,1.321,4.431.712.712,0,0,0,.978.264Z" fill="#d7e0e5"/>
    <path id="Path_363" data-name="Path 363" d="M4704.869,868.576a.716.716,0,0,0,.647.78,3.682,3.682,0,0,1,3.023,1.577,4.056,4.056,0,0,1,.565,2.121,3.3,3.3,0,0,1-.02.384.718.718,0,0,0,.615.807.79.79,0,0,0,.1.006.716.716,0,0,0,.71-.618,4.7,4.7,0,0,0,.032-.579,5.473,5.473,0,0,0-.788-2.889,5.129,5.129,0,0,0-4.1-2.237A.718.718,0,0,0,4704.869,868.576Z" fill="#d7e0e5"/>
    <path id="Path_364" data-name="Path 364" d="M4706.191,866.229c3.053.186,4.493,1.4,5.315,2.714a6.837,6.837,0,0,1,.921,3.438c0,.188-.008.27-.008.27a.716.716,0,0,0,.656.773c.021,0,.042,0,.062,0a.716.716,0,0,0,.712-.657v0c0-.015.012-.156.012-.387a8.266,8.266,0,0,0-1.131-4.184c-1.016-1.69-3.031-3.227-6.46-3.4a.717.717,0,0,0-.079,1.431Z" fill="#d7e0e5"/>
    <path id="Path_365" data-name="Path 365" d="M4774.573,868.641a2.817,2.817,0,0,1,.3.178,3.543,3.543,0,0,1,1.765,2.9,4.628,4.628,0,0,1-.6,2.139.717.717,0,0,0,1.271.665,6.039,6.039,0,0,0,.762-2.8,5.141,5.141,0,0,0-2.892-4.379.716.716,0,1,0-.608,1.3Z" fill="#d7e0e5"/>
    <path id="Path_366" data-name="Path 366" d="M4777.053,866.278h0a4.873,4.873,0,0,1,.466.3,5.959,5.959,0,0,1,2.642,4.708A7.483,7.483,0,0,1,4779.03,875a.717.717,0,0,0,.265.979.706.706,0,0,0,.355.1.717.717,0,0,0,.624-.361,8.868,8.868,0,0,0,1.319-4.429,7.591,7.591,0,0,0-3.862-6.272.717.717,0,1,0-.678,1.263Z" fill="#d7e0e5"/>
    <path id="Path_367" data-name="Path 367" d="M4762.805,869.355a.716.716,0,0,0-.135-1.426,5.132,5.132,0,0,0-4.1,2.237,5.447,5.447,0,0,0-.788,2.888,5.066,5.066,0,0,0,.031.581.718.718,0,0,0,.711.617.682.682,0,0,0,.1-.007.716.716,0,0,0,.611-.808v0a2.7,2.7,0,0,1-.02-.38,4.056,4.056,0,0,1,.565-2.121A3.686,3.686,0,0,1,4762.805,869.355Z" fill="#d7e0e5"/>
    <path id="Path_368" data-name="Path 368" d="M4754.458,872.38c0,.234.011.376.012.394a.716.716,0,0,0,.713.653c.021,0,.043,0,.064,0a.713.713,0,0,0,.652-.774s-.007-.084-.007-.27a6.833,6.833,0,0,1,.92-3.437c.823-1.313,2.262-2.528,5.316-2.714a.717.717,0,1,0-.08-1.432c-3.429.175-5.445,1.71-6.46,3.4A8.257,8.257,0,0,0,4754.458,872.38Z" fill="#d7e0e5"/>
  </g>
</svg>
