<svg xmlns="http://www.w3.org/2000/svg" width="72.485" height="169.999" viewBox="0 0 72.485 169.999">
  <g id="Group_237" data-name="Group 237" transform="translate(-5009.555 -848.156)">
    <path id="Path_369" data-name="Path 369" d="M5016.078,900.508a39.172,39.172,0,0,0,9.368,4.634c.9.312,1.752.58,2.569.812v104.131a8.071,8.071,0,0,0,16.142,0V951.159h3.025v58.926a8.071,8.071,0,0,0,16.142,0V912.2a28.132,28.132,0,0,1,1.163,2.767c1.84,5.1,3.387,13.466,3.381,26.527,0,3.6-.116,7.554-.368,11.9a5.22,5.22,0,0,0,4.908,5.516c.1.007.208.009.311.01a5.223,5.223,0,0,0,5.208-4.918c.264-4.528.386-8.682.386-12.5-.027-19.7-3.173-30.608-7.465-37.163a18.438,18.438,0,0,0-6.969-6.5,12.442,12.442,0,0,0-5.3-1.39c-.1-.007-.2-.016-.3-.016H5033.1a22.081,22.081,0,0,1-3.066-.762,31.7,31.7,0,0,1-7.625-3.471,9.346,9.346,0,0,1-2.158-1.861,2.505,2.505,0,0,1-.208-.309,4.147,4.147,0,0,1,.73-.883c1.254-1.3,4.461-3.245,9.981-5.353a15.928,15.928,0,0,1-.191-11.018,60.977,60.977,0,0,0-13.362,5.993,19.982,19.982,0,0,0-5.43,4.857,10.812,10.812,0,0,0-2.219,6.4,10.366,10.366,0,0,0,1.289,4.943A16.732,16.732,0,0,0,5016.078,900.508Z" fill="#d7e0e5"/>
    <circle id="Ellipse_23" data-name="Ellipse 23" cx="14.687" cy="14.687" r="14.687" transform="translate(5030.982 863.33)" fill="#d7e0e5"/>
    <path id="Path_370" data-name="Path 370" d="M5067.554,869.066a3.471,3.471,0,0,0,1.929-.254,1.8,1.8,0,0,0,1.27-1.287c.15-.734-.193-1.213-1.026-1.442a2.192,2.192,0,0,0-1.032-.7,1.585,1.585,0,0,0-1.062.088,3.038,3.038,0,0,1-.383.182c-.849.361-1.314.753-1.4,1.181a1.679,1.679,0,0,0,.337,1.418A2.231,2.231,0,0,0,5067.554,869.066Z" fill="#d7e0e5"/>
    <path id="Path_371" data-name="Path 371" d="M5069.254,863.347a3.165,3.165,0,0,0,1.77,0,1.641,1.641,0,0,0,.859-.942,14.945,14.945,0,0,1,1.131-2.207q3.74-.5,4.962-.8a4.848,4.848,0,0,0,2.325-1.442,6.36,6.36,0,0,0,1.525-3.222l0-.013a7.179,7.179,0,0,0,.115-2.849,5.522,5.522,0,0,0-1.55-2.287,4.025,4.025,0,0,0-2.364-1.076q-.813-.137-1.624-.287a4.448,4.448,0,0,0-2.337.221l.014,0a7.276,7.276,0,0,0-2.385,1.206,2.845,2.845,0,0,0-1.159,1.526,1.131,1.131,0,0,0,1.033,1.487q1.962.4,2.4-.8a1.345,1.345,0,0,1,.757-.614,3.913,3.913,0,0,1,2.116.038,3.431,3.431,0,0,1,1,.376,1.664,1.664,0,0,1,.621.512,2.966,2.966,0,0,1,.192,1.09,5.413,5.413,0,0,1-.044,1.325,3.123,3.123,0,0,1-.609,1.283,1.773,1.773,0,0,1-1,.725l-2.03.356q-1.924.333-2.626.538a8.454,8.454,0,0,0-1.6.691q-1.2,1.555-1.516,2.078a3.61,3.61,0,0,0-.451,1.179,3.2,3.2,0,0,0-.015,1.221C5068.827,863.065,5068.994,863.295,5069.254,863.347Z" fill="#d7e0e5"/>
  </g>
</svg>
