<svg xmlns="http://www.w3.org/2000/svg" width="200" height="200.067" viewBox="0 0 200 200.067">
  <g id="Group_31" data-name="Group 31" transform="translate(-4425.88 -338.321)">
    <path id="Path_76" data-name="Path 76" d="M4602.125,338.377a2.329,2.329,0,0,0-1.018.582l-20.931,18.6a2.327,2.327,0,0,0-.8,1.745v22.239l-4.361,4.361a91.079,91.079,0,1,0,3.27,3.343l4.361-4.361h22.312a2.327,2.327,0,0,0,1.745-.8l18.6-20.931a2.325,2.325,0,0,0-1.744-3.852h-18.606V340.7a2.328,2.328,0,0,0-2.834-2.326Zm-1.817,7.486v15.771a2.325,2.325,0,0,0,2.326,2.326h15.7l-14.463,16.28h-19.841V360.326Zm-86.051,20.423a83.525,83.525,0,0,1,57.488,22.893l-19.768,19.769a54.513,54.513,0,1,0,3.343,3.27l19.7-19.695a83.649,83.649,0,1,1-60.759-26.237Zm0,32.56a51.089,51.089,0,0,1,34.449,13.3l-18.169,18.169a25.806,25.806,0,1,0,3.343,3.344l18.17-18.17a51.186,51.186,0,1,1-37.793-16.643Zm0,30.234a20.789,20.789,0,0,1,13.009,4.579l-14.681,14.681a2.338,2.338,0,0,0,3.343,3.27l14.681-14.681a20.94,20.94,0,1,1-16.352-7.849Z" fill="#ee4036"/>
  </g>
</svg>
